# xmcd CD database file generated by OrangeCD 6.4
#
# Track frame offsets:
#	150
#	18253
#	36267
#	64732
#	83822
#	100562
#	121472
#	135051
#	166336
#	179284
#	189520
#
# Disc length: 2878 seconds
#
# Revision: 0
# Processed by: cddbd v1.5.2PL0 Copyright (c) Steve Scherf et al.
# Submitted via: OrangeCD 6.4
#
DISCID=800b3c0b
DTITLE=The Rolling Stones - The REAL Alternate Album - Some Girls
DYEAR=2010
DGENRE=
TTITLE0=Shame Shame Shame
TTITLE1=Red Eyes
TTITLE2=Do You Think I Really Care
TTITLE3=Everlasting Is My Love
TTITLE4=I Need You
TTITLE5=You Don't Have To Go
TTITLE6=So Young
TTITLE7=Munich Hilton
TTITLE8=Dancing Girls (Brown Leaves)
TTITLE9=Broken Head Blues
TTITLE10=Disco Muzik
EXTD=
EXTT0=
EXTT1=
EXTT2=
EXTT3=
EXTT4=
EXTT5=
EXTT6=
EXTT7=
EXTT8=
EXTT9=
EXTT10=
PLAYORDER=
